<svg width="512" height="512" viewBox="0 0 512 512" fill="none" xmlns="http://www.w3.org/2000/svg">
<path d="M211.997 425.631C216.906 425.367 222.488 425.372 227.382 425.788C231.836 426.166 235.651 427.834 238.539 431.334C238.848 431.705 239.139 432.09 239.41 432.49C239.681 432.89 239.931 433.302 240.161 433.727C240.391 434.152 240.599 434.587 240.785 435.032C240.972 435.478 241.136 435.932 241.277 436.394C241.418 436.855 241.536 437.323 241.631 437.797C241.726 438.27 241.796 438.747 241.843 439.228C241.89 439.709 241.913 440.191 241.912 440.674C241.911 441.157 241.886 441.638 241.837 442.119C241.381 446.201 239.426 449.932 236.187 452.483C233.828 454.341 231.389 455.31 228.417 455.646C222.785 456.282 216.74 455.844 211.061 455.843L177.671 455.837L149.375 455.833C144.783 455.835 139.82 456.258 135.273 455.68C131.117 455.152 127.439 453.097 124.891 449.751C123.458 447.871 122.605 445.671 122.247 443.343C121.409 437.89 122.009 427.769 122.008 421.72L121.977 405.655C121.97 402.133 121.806 398.537 122.265 395.04C122.815 390.855 123.964 386.645 125.077 382.579C129.943 364.806 138.444 349.687 152.167 337.179C171.084 319.938 194.688 308.747 220.302 306.354C227.62 305.67 234.914 305.747 242.255 305.747L267.557 305.76C280.848 305.765 292.706 306.026 305.449 301.183C309.103 299.795 313.259 298.12 316.372 295.702C319.358 293.383 321.69 290.057 322.13 286.238C323.592 273.549 314.444 272.575 308.159 264.6C303.101 258.183 301.256 250.22 302.291 242.166C303.251 234.705 307.502 227.507 313.492 222.968C313.882 222.674 314.279 222.39 314.684 222.116C315.088 221.841 315.499 221.577 315.917 221.324C316.334 221.07 316.758 220.827 317.187 220.594C317.616 220.361 318.051 220.139 318.492 219.928C318.933 219.717 319.378 219.516 319.829 219.327C320.279 219.138 320.734 218.96 321.193 218.793C321.652 218.626 322.116 218.471 322.583 218.328C323.05 218.184 323.52 218.052 323.993 217.932C324.467 217.811 324.943 217.703 325.422 217.606C325.901 217.509 326.382 217.425 326.865 217.352C327.348 217.279 327.833 217.219 328.319 217.17C328.805 217.121 329.292 217.084 329.78 217.059C330.268 217.034 330.756 217.022 331.245 217.022C331.734 217.021 332.222 217.033 332.71 217.057C333.198 217.08 333.685 217.116 334.171 217.164C334.657 217.212 335.142 217.272 335.625 217.344C336.192 217.428 336.755 217.528 337.315 217.645C337.876 217.762 338.432 217.896 338.985 218.046C339.537 218.197 340.084 218.363 340.627 218.546C341.17 218.729 341.706 218.927 342.237 219.142C342.768 219.357 343.292 219.587 343.809 219.833C344.326 220.079 344.836 220.34 345.337 220.616C345.839 220.892 346.332 221.183 346.816 221.488C347.301 221.793 347.776 222.113 348.241 222.447C348.706 222.78 349.161 223.127 349.606 223.488C350.051 223.849 350.484 224.222 350.907 224.609C351.329 224.995 351.74 225.394 352.139 225.805C352.538 226.216 352.924 226.638 353.297 227.072C353.671 227.505 354.032 227.95 354.379 228.405C354.726 228.86 355.06 229.326 355.379 229.801C355.699 230.276 356.004 230.76 356.295 231.253C356.586 231.746 356.862 232.248 357.123 232.757C358.706 235.868 359.565 239.353 361.692 242.173C364.06 245.313 367.475 247.189 371.356 247.709C376.723 248.429 383.563 246.08 389.21 245.831C393.891 245.625 398.615 245.745 403.301 245.746L428.954 245.752L445.255 245.736C448.854 245.734 452.571 245.565 456.142 246.047C463.234 258.964 474.377 269.441 489.494 271.482C493.945 272.083 498.514 271.572 502.734 273.403C507.917 275.65 510.012 279.531 512 284.515V299.154C510.788 302.554 510.762 306.877 510.129 310.476C505.435 337.188 488.769 361.739 466.66 377.15C465.687 377.828 464.704 378.489 463.709 379.133C462.714 379.777 461.708 380.404 460.692 381.014C459.675 381.624 458.649 382.217 457.612 382.792C456.575 383.367 455.529 383.924 454.474 384.463C453.418 385.002 452.353 385.524 451.28 386.027C450.207 386.53 449.125 387.014 448.035 387.48C446.945 387.946 445.847 388.393 444.742 388.822C443.637 389.251 442.525 389.66 441.406 390.051C440.287 390.442 439.161 390.814 438.03 391.166C436.898 391.519 435.76 391.852 434.617 392.165C433.474 392.478 432.326 392.772 431.173 393.047C430.02 393.322 428.862 393.576 427.7 393.811C426.538 394.046 425.372 394.261 424.203 394.456C423.034 394.651 421.862 394.827 420.687 394.982C419.512 395.137 418.334 395.272 417.154 395.387C415.975 395.502 414.793 395.597 413.61 395.672C404.422 396.241 395.028 395.829 385.81 395.832L371.454 395.867C368.42 395.896 365.001 396.243 362.021 395.715C361.755 405.664 361.971 415.675 361.97 425.631C364.825 425.494 367.736 425.619 370.595 425.635C376.585 425.669 382.238 425.456 386.974 429.727C389.937 432.398 391.74 436.033 391.88 440.037C391.897 440.546 391.89 441.054 391.857 441.562C391.824 442.071 391.765 442.576 391.681 443.078C391.597 443.58 391.488 444.077 391.354 444.568C391.221 445.059 391.063 445.543 390.881 446.019C390.699 446.494 390.494 446.959 390.265 447.414C390.036 447.869 389.785 448.312 389.512 448.742C389.239 449.171 388.945 449.586 388.63 449.987C388.316 450.388 387.982 450.771 387.629 451.138C383.937 454.982 379.789 455.752 374.626 455.83C354.374 456.136 334.076 455.822 313.819 455.837L295.404 455.853C291.717 455.853 287.658 456.168 284.032 455.503C281.197 454.982 278.358 453.334 276.321 451.317C274.16 449.178 272.997 446.884 272.389 443.921C271.367 438.943 271.955 432.513 271.957 427.393L272 395.944C257.711 395.815 243.422 395.776 229.133 395.827C224.664 395.829 215.969 396.433 212.037 395.716C211.768 405.666 211.994 415.675 211.997 425.631ZM404.564 276.077C400.312 276.938 396.814 278.839 394.386 282.527C392.212 285.83 391.476 290.148 392.303 294.011C392.407 294.496 392.535 294.975 392.688 295.448C392.84 295.921 393.015 296.384 393.214 296.839C393.413 297.294 393.635 297.738 393.878 298.171C394.121 298.604 394.386 299.023 394.672 299.429C394.957 299.835 395.262 300.226 395.587 300.602C395.912 300.977 396.255 301.335 396.616 301.676C396.977 302.017 397.354 302.34 397.747 302.643C398.14 302.946 398.548 303.229 398.969 303.491C402.174 305.462 405.832 306.017 409.519 305.491C413.587 304.626 417.095 302.543 419.415 299.012C419.684 298.596 419.933 298.168 420.16 297.727C420.387 297.286 420.593 296.836 420.776 296.375C420.959 295.914 421.119 295.446 421.256 294.969C421.393 294.493 421.507 294.011 421.596 293.523C421.686 293.036 421.752 292.545 421.793 292.051C421.834 291.557 421.851 291.062 421.844 290.567C421.837 290.071 421.806 289.577 421.75 289.084C421.695 288.591 421.615 288.103 421.511 287.618C421.409 287.131 421.283 286.651 421.133 286.178C420.983 285.704 420.81 285.239 420.613 284.782C420.416 284.326 420.197 283.881 419.956 283.446C419.714 283.011 419.451 282.59 419.168 282.182C418.884 281.774 418.58 281.381 418.257 281.004C417.934 280.626 417.593 280.265 417.234 279.922C416.875 279.579 416.499 279.254 416.107 278.949C415.715 278.643 415.309 278.358 414.888 278.093C411.606 276.053 408.316 275.862 404.564 276.077Z" fill="#79756C"/>
<path d="M250.898 116.638C253.134 111.9 255.081 107.003 257.122 102.177L267.486 77.6301C269.407 73.0777 271.86 65.822 274.6 61.8756C276.187 59.5899 278.344 57.9583 280.969 57.0361C285.177 55.5574 290.233 55.6992 294.248 57.7076C296.022 58.5949 297.929 59.9279 299.087 61.5549C302.01 65.6621 304.176 72.3293 306.184 77.0539L318.359 105.721C319.437 108.264 321.24 113.758 322.889 115.756C323.148 116.071 323.319 115.972 323.698 115.992L323.926 115.776C326.752 113.138 329.888 110.764 332.892 108.33L347.584 96.4204L360.278 86.1122C363.591 83.4185 366.903 80.3913 370.698 78.3946C372.597 77.3951 375.453 77.0845 377.583 77.158C381.65 77.2982 385.308 79.0914 388.041 82.072C389.946 84.1494 391.103 86.6621 391.598 89.4214C392.563 94.7943 391.991 105.227 391.989 111.084L391.964 155.758C399.153 155.42 406.495 155.758 413.705 155.756C419.418 155.754 429.353 155.129 434.605 156.176C437.401 156.733 439.943 157.943 442.046 159.888C444.933 162.558 446.491 166.201 446.626 170.114C446.691 171.987 446.425 173.78 445.881 175.571C444.045 181.617 440.557 188.689 438.12 194.639L432.408 208.574C431.428 210.959 430.554 213.518 429.386 215.813C425.4 216.05 421.37 215.925 417.378 215.92L396.037 215.903C391.504 215.92 386.758 215.847 382.258 216.364C373.131 201.998 360.818 192.138 343.953 188.443C342.997 188.24 342.036 188.06 341.071 187.903C340.106 187.746 339.138 187.613 338.166 187.504C337.195 187.395 336.221 187.309 335.246 187.248C334.27 187.186 333.293 187.148 332.316 187.134C331.338 187.121 330.361 187.131 329.384 187.165C328.407 187.198 327.431 187.256 326.457 187.338C325.483 187.419 324.511 187.525 323.542 187.654C322.573 187.783 321.607 187.936 320.646 188.112C319.685 188.289 318.728 188.489 317.776 188.712C316.824 188.935 315.878 189.181 314.938 189.45C313.999 189.719 313.066 190.012 312.14 190.327C311.215 190.642 310.298 190.979 309.389 191.339C308.48 191.699 307.58 192.081 306.69 192.485C305.799 192.888 304.919 193.314 304.05 193.761C303.181 194.208 302.323 194.675 301.476 195.164C300.629 195.653 299.795 196.163 298.973 196.692C298.145 197.231 297.331 197.79 296.531 198.37C295.731 198.949 294.946 199.548 294.176 200.167C293.406 200.786 292.652 201.423 291.913 202.08C291.175 202.736 290.453 203.41 289.748 204.103C289.043 204.795 288.356 205.504 287.687 206.231C287.018 206.958 286.367 207.701 285.735 208.46C285.102 209.219 284.489 209.993 283.896 210.783C283.302 211.572 282.728 212.376 282.175 213.194C281.621 214.013 281.088 214.844 280.576 215.689C280.064 216.534 279.573 217.391 279.104 218.26C278.635 219.129 278.187 220.01 277.762 220.901C277.336 221.792 276.933 222.694 276.552 223.606C276.172 224.517 275.815 225.438 275.48 226.368C275.145 227.297 274.834 228.234 274.546 229.179C274.258 230.124 273.994 231.076 273.753 232.034C273.513 232.993 273.297 233.956 273.104 234.925C270.305 248.616 272.664 263.892 279.84 275.925C270.111 275.497 260.22 275.892 250.469 275.896C241.518 275.899 232.366 275.509 223.447 276.154C190.052 278.569 158.408 290.816 133.559 313.609C132.076 314.944 130.62 316.309 129.193 317.704C127.766 319.099 126.368 320.522 124.999 321.975C123.63 323.428 122.292 324.908 120.985 326.416C119.678 327.923 118.402 329.457 117.159 331.018C115.915 332.579 114.704 334.164 113.525 335.775C112.346 337.386 111.201 339.02 110.09 340.677C108.979 342.335 107.903 344.015 106.861 345.718C105.82 347.42 104.814 349.143 103.843 350.887C102.872 352.631 101.938 354.394 101.041 356.176C100.143 357.959 99.2825 359.759 98.4591 361.577C97.6357 363.394 96.8502 365.228 96.1026 367.079C95.3549 368.93 94.6458 370.795 93.9751 372.674C93.3045 374.553 92.673 376.446 92.0805 378.352C91.488 380.258 90.935 382.175 90.4217 384.103C89.9084 386.032 89.4351 387.97 89.0018 389.918C88.5685 391.867 88.1756 393.823 87.8231 395.787C71.7633 396.121 55.6393 395.839 39.5731 395.843L24.2346 395.848C20.5959 395.849 16.8357 396.061 13.237 395.458C9.9486 394.906 7.02553 393.648 4.58915 391.332C2.11525 388.981 1.7059 386.609 0 383.948V377.575C0.035569 377.515 0.0719495 377.457 0.106707 377.397C1.18958 375.533 1.62346 373.463 2.99224 371.741C6.24428 367.647 14.3653 361.192 18.5144 357.407C30.5968 346.385 42.621 335.23 54.9111 324.442C47.6543 318.843 38.7318 313.499 31.0122 308.366C27.5878 306.088 23.3195 303.829 20.5934 300.743C20.1145 300.205 19.6787 299.634 19.2862 299.03C18.8937 298.426 18.5488 297.796 18.2516 297.14C17.9544 296.484 17.7083 295.809 17.5132 295.116C17.3181 294.423 17.1763 293.719 17.0878 293.004C16.5864 288.914 17.6247 284.633 20.1821 281.375C21.3667 279.866 22.7093 278.769 24.4044 277.861C29.4636 275.15 35.3763 273.323 40.7128 271.172C54.703 265.535 68.9677 260.244 82.7856 254.215L82.6125 253.948C79.8146 249.709 76.388 245.715 73.2693 241.697L56.2159 219.732C53.2732 215.943 49.3742 211.895 47.3256 207.574C45.875 204.514 45.5729 200.862 46.2456 197.559C47.0388 193.666 49.1765 190.353 52.5447 188.192C54.5715 186.892 56.7084 186.261 59.0841 185.987C62.4923 185.594 65.9941 185.737 69.4226 185.737L85.3681 185.741L106.027 185.757C109.892 185.761 113.83 185.62 117.685 185.875C114.279 171.395 110.568 156.978 106.973 142.544C105.636 137.177 102.505 127.061 102.352 122.028C102.264 119.14 103.285 116.014 104.805 113.581C106.879 110.262 110.019 108.032 113.863 107.235C114.607 107.084 115.358 106.985 116.115 106.94C116.873 106.894 117.63 106.902 118.387 106.963C119.143 107.024 119.891 107.137 120.632 107.304C121.373 107.47 122.098 107.687 122.808 107.956C128.01 109.931 133.92 114.306 138.735 117.274L166.729 134.441C171.74 137.514 176.737 140.936 181.949 143.641L181.807 108.835C181.766 102.981 180.975 95.4004 182.187 89.7599C182.74 87.1863 184.145 84.7159 186.012 82.8636C188.881 80.0179 192.977 78.3038 197.028 78.3729C197.643 78.3833 198.254 78.4319 198.862 78.5187C199.471 78.6055 200.071 78.7297 200.664 78.8915C201.257 79.0533 201.838 79.2514 202.406 79.4856C202.974 79.7199 203.525 79.9886 204.06 80.2917C208.414 82.7038 212.383 86.4728 216.306 89.558L238.364 106.906C242.484 110.155 246.554 113.711 250.898 116.638Z" fill="#FF760C"/>
</svg>
